<?xml version="1.0" standalone="no"?>
<!DOCTYPE svg PUBLIC "-//W3C//DTD SVG 20010904//EN"
 "http://www.w3.org/TR/2001/REC-SVG-20010904/DTD/svg10.dtd">
<svg version="1.0" xmlns="http://www.w3.org/2000/svg"
 width="512.000000pt" height="512.000000pt" viewBox="0 0 512.000000 512.000000"
 preserveAspectRatio="xMidYMid meet">

<g transform="translate(0.000000,512.000000) scale(0.100000,-0.100000)"
fill="#000000" stroke="none">
<path d="M2985 3775 c-128 -20 -250 -53 -395 -108 l-135 -50 -275 27 c-151 16
-342 35 -425 43 -197 19 -338 13 -430 -19 -260 -92 -568 -307 -669 -466 -14
-23 -34 -42 -44 -42 -42 0 -147 -63 -207 -123 -59 -61 -89 -105 -205 -302 -63
-107 -110 -166 -146 -185 -63 -34 -65 -125 -4 -150 85 -35 180 60 343 341 73
125 128 194 185 230 51 32 55 30 66 -36 13 -73 64 -268 115 -435 l50 -164 -41
-56 c-51 -66 -171 -184 -250 -242 -41 -30 -61 -53 -69 -78 -7 -23 -9 -130 -7
-308 l3 -274 28 -24 c26 -22 36 -24 143 -24 109 0 116 1 139 25 33 32 32 60
-11 188 l-36 108 28 22 c80 64 193 140 267 178 l84 43 46 -34 c26 -18 47 -40
47 -48 0 -8 -7 -41 -16 -75 -8 -33 -13 -70 -10 -81 3 -12 54 -70 114 -129 93
-91 114 -107 141 -107 21 0 41 9 56 25 25 24 25 25 25 227 0 226 1 224 -69
272 -23 16 -41 32 -41 36 0 4 25 18 55 30 31 12 87 45 126 72 38 27 73 48 77
46 4 -2 40 -25 79 -51 187 -123 444 -188 755 -191 87 0 158 -4 158 -7 0 -3
-13 -45 -30 -94 -28 -84 -30 -98 -30 -247 0 -155 1 -159 25 -183 23 -24 30
-25 143 -25 110 0 120 2 139 23 36 40 36 56 -3 139 l-37 78 76 79 c63 64 86
97 125 178 l48 100 74 -70 c90 -84 191 -157 282 -203 74 -37 70 -29 88 -173
12 -90 29 -135 55 -145 9 -3 88 -6 176 -6 145 0 161 2 179 20 51 51 34 97 -74
196 l-74 69 -11 90 c-6 50 -16 108 -21 130 -5 22 -8 41 -6 42 2 2 32 -10 67
-27 97 -45 209 -70 344 -76 150 -7 237 -19 345 -50 111 -32 171 -31 226 1 35
20 47 23 69 15 38 -14 90 -12 131 5 44 18 158 127 174 166 16 37 10 49 -61
149 -30 41 -79 117 -109 169 -62 107 -144 199 -269 305 l-87 74 -12 144 c-12
143 -40 328 -61 404 -18 65 -54 113 -129 173 -209 166 -739 391 -1049 446
-103 18 -236 18 -348 0z m383 -180 c378 -87 915 -344 974 -465 19 -39 52 -250
68 -440 15 -182 11 -171 103 -244 118 -92 237 -219 287 -306 24 -41 61 -101
83 -133 l39 -59 -23 -24 c-12 -13 -27 -24 -32 -24 -5 0 -37 26 -71 57 -110
102 -238 172 -291 159 -39 -10 -65 -42 -65 -78 1 -45 17 -64 86 -98 33 -16 73
-40 89 -54 l30 -25 -107 29 c-121 32 -248 50 -356 50 -140 0 -293 47 -395 120
l-44 31 28 107 c15 59 30 139 34 177 6 63 5 73 -15 98 -17 21 -30 27 -61 27
-59 0 -85 -30 -94 -111 -10 -85 -39 -199 -71 -276 -30 -72 -30 -80 14 -240 17
-62 28 -113 26 -113 -3 0 -28 12 -57 26 -277 140 -499 412 -546 669 -14 72
-37 99 -87 99 -28 0 -42 -7 -62 -29 -21 -25 -24 -36 -19 -84 6 -71 37 -165 88
-265 21 -43 38 -81 36 -83 -2 -1 -53 -10 -113 -20 -74 -11 -179 -16 -329 -17
-226 -1 -293 6 -445 46 -77 20 -255 102 -300 137 -23 19 -24 22 -11 43 40 62
91 172 91 193 0 39 -42 79 -83 79 -46 0 -59 -12 -108 -102 -103 -192 -208
-273 -441 -338 -200 -56 -348 -130 -521 -260 l-82 -62 -3 51 c-3 50 -2 53 35
82 142 110 288 283 358 424 49 97 55 144 25 176 -27 29 -64 39 -90 25 -17 -9
-21 -5 -36 47 -9 32 -29 103 -44 158 -38 134 -57 218 -65 291 -7 59 -6 62 26
99 124 142 353 292 554 362 91 32 192 32 518 -2 133 -14 315 -33 405 -42 184
-19 165 -22 373 56 271 100 489 124 697 76z"/>
<path d="M3849 3244 c-66 -42 -99 -135 -99 -281 0 -124 23 -224 73 -318 49
-92 112 -108 161 -42 23 31 19 52 -30 167 -22 52 -28 85 -32 165 -2 60 0 111
7 128 l11 28 31 -18 c17 -10 64 -48 105 -85 83 -76 114 -85 159 -45 52 45 35
96 -61 186 -123 115 -251 160 -325 115z"/>
</g>
</svg>
