<?xml version="1.0" standalone="no"?>
<!DOCTYPE svg PUBLIC "-//W3C//DTD SVG 20010904//EN"
 "http://www.w3.org/TR/2001/REC-SVG-20010904/DTD/svg10.dtd">
<svg version="1.0" xmlns="http://www.w3.org/2000/svg"
 width="900.000000pt" height="500.000000pt" viewBox="0 0 900.000000 500.000000"
 preserveAspectRatio="xMidYMid meet">

<g transform="translate(0.000000,500.000000) scale(0.100000,-0.100000)"
fill="#000000" stroke="none">
<path d="M4710 3950 c-109 -17 -216 -66 -285 -130 l-30 -28 -105 35 c-250 84
-479 97 -600 33 -14 -7 -52 -33 -85 -58 -33 -25 -82 -55 -109 -68 l-50 -23
-33 39 c-30 34 -135 123 -172 145 -8 4 0 -12 16 -36 40 -58 83 -144 83 -165 0
-16 -12 -16 -147 -8 -239 14 -373 9 -483 -19 -52 -14 -101 -27 -109 -28 -8 -3
-18 9 -25 28 -18 50 -25 49 -32 -5 -9 -74 -24 -83 -136 -86 -74 -1 -101 -6
-135 -24 -61 -32 -76 -68 -71 -165 4 -69 10 -89 52 -170 90 -176 142 -227 230
-227 39 0 65 9 121 40 89 48 177 65 266 51 34 -6 81 -8 104 -4 41 5 44 4 59
-25 26 -50 113 -150 166 -189 l49 -36 -23 -31 c-30 -40 -43 -81 -52 -156 -6
-59 -7 -60 -42 -66 -82 -16 -260 31 -431 112 -51 24 -95 44 -97 44 -22 0 72
-112 145 -172 60 -50 137 -95 225 -129 39 -16 63 -28 54 -29 -9 0 -21 -7 -26
-16 -9 -16 -11 -16 -33 0 -26 18 -59 21 -59 6 0 -20 30 -69 51 -84 l22 -15
-22 -27 c-11 -15 -21 -35 -21 -44 0 -23 49 -65 95 -81 19 -7 35 -16 35 -20 0
-11 -164 -68 -255 -89 -158 -37 -186 -37 -351 8 -234 63 -281 64 -319 6 -12
-18 -24 -24 -53 -24 -21 0 -48 -7 -61 -16 -21 -15 -23 -22 -18 -70 18 -176
166 -297 312 -255 17 5 58 4 95 -1 48 -7 83 -6 135 5 69 14 70 14 92 -9 26
-28 70 -41 86 -25 7 7 16 28 22 48 23 83 100 96 404 69 102 -9 245 -20 316
-25 91 -7 156 -18 215 -36 47 -14 114 -35 150 -46 132 -40 585 -131 1049 -210
122 -21 138 -26 175 -58 76 -64 216 -150 376 -231 177 -89 168 -80 205 -225
23 -91 21 -97 -37 -135 -54 -37 -85 -72 -90 -105 -4 -25 46 -52 66 -36 10 8
16 8 25 -3 15 -18 60 -26 105 -19 45 7 66 42 66 109 l0 46 34 -6 c37 -7 66 0
66 18 0 6 -21 30 -47 52 l-48 42 -1 109 c0 59 -5 116 -10 125 -5 9 -39 40 -77
68 -80 60 -113 107 -123 173 l-6 48 103 -52 c117 -58 207 -94 277 -110 26 -6
148 -14 272 -19 124 -5 242 -14 262 -20 65 -19 224 -210 279 -335 21 -47 21
-47 1 -68 -32 -36 -42 -64 -49 -132 -9 -96 26 -137 88 -104 16 8 30 7 61 -6
47 -18 88 -13 113 15 37 41 -2 167 -144 470 -168 358 -153 333 -263 439 -55
53 -108 112 -118 131 -20 40 -50 138 -109 355 -22 83 -52 183 -66 224 -14 41
-24 75 -22 76 1 1 63 -35 137 -82 237 -148 411 -174 507 -78 30 30 33 39 33
92 0 40 -8 74 -23 108 -16 35 -22 62 -19 88 8 72 -40 155 -128 217 l-32 23 18
-34 c15 -29 7 -25 -55 34 -39 37 -75 67 -80 67 -6 0 -11 -10 -13 -22 -3 -21
-6 -18 -32 20 -16 23 -31 41 -33 38 -2 -2 9 -36 26 -74 68 -161 177 -287 271
-312 29 -8 41 -18 55 -50 23 -51 24 -120 1 -155 -57 -87 -172 -84 -331 7 -128
74 -355 229 -366 250 -46 89 -142 162 -374 283 -288 150 -322 176 -445 340
-115 152 -281 339 -346 389 -25 19 -61 40 -80 46 -40 14 -43 34 -15 95 24 54
62 84 165 133 143 69 147 110 20 169 -134 61 -292 90 -404 73z m250 -70 c52
-17 119 -43 149 -59 l54 -28 -29 -20 c-16 -11 -62 -37 -103 -59 -89 -46 -126
-95 -137 -183 -3 -31 -11 -64 -16 -74 -15 -30 -89 -77 -147 -93 -43 -13 -51
-18 -38 -26 10 -5 17 -18 17 -28 0 -29 -34 -25 -97 10 l-54 31 24 -43 c21 -36
127 -307 127 -323 0 -3 -15 11 -32 31 -30 34 -147 118 -154 111 -2 -1 29 -37
69 -79 40 -42 81 -91 91 -110 l20 -33 -40 31 c-21 17 -57 41 -79 54 -39 23
-38 22 16 -31 64 -62 115 -127 106 -136 -4 -3 -12 -1 -19 4 -7 6 -62 36 -123
68 l-110 58 72 -67 c40 -37 82 -80 93 -96 l21 -29 -56 25 c-58 27 -156 56
-163 49 -2 -2 11 -11 29 -21 43 -22 137 -111 155 -147 l15 -28 -51 26 c-49 25
-123 46 -205 60 -38 6 -36 4 39 -42 88 -53 122 -90 112 -121 -4 -11 -38 -46
-76 -77 -60 -49 -137 -141 -127 -152 2 -2 41 15 86 37 150 73 234 105 331 125
63 13 64 13 30 21 -29 6 -31 8 -15 15 11 4 43 8 70 8 75 2 125 12 125 26 0 19
-24 25 -100 25 -125 0 -160 20 -110 65 17 15 24 16 46 7 66 -31 58 -6 -18 54
l-63 49 55 5 c71 7 75 25 13 68 l-48 33 45 -7 45 -7 -23 26 c-21 22 -22 25 -5
24 33 -3 17 46 -56 174 -39 67 -71 129 -71 137 0 16 62 -17 143 -75 26 -19 47
-32 47 -29 0 4 -14 31 -31 61 -34 61 -33 91 3 80 13 -4 61 -25 107 -46 46 -21
85 -39 86 -39 2 0 -25 27 -58 60 l-62 59 108 -44 c59 -24 107 -42 107 -40 0 2
-33 29 -74 59 -40 31 -80 63 -87 72 -13 16 -10 17 38 12 l51 -5 -18 26 c-10
14 -22 37 -25 50 -7 24 -7 24 31 -6 75 -60 221 -220 321 -353 56 -74 121 -154
145 -177 52 -50 172 -128 328 -213 214 -117 284 -173 359 -286 57 -84 100
-191 130 -319 100 -435 101 -437 245 -585 108 -109 139 -156 244 -366 49 -97
132 -286 146 -332 7 -21 6 -21 -20 -12 -19 7 -37 8 -56 1 -16 -6 -43 -8 -59
-4 -26 5 -29 9 -23 27 22 65 -13 141 -143 317 -93 125 -131 141 -417 179 -130
17 -168 26 -205 48 -72 41 -183 158 -217 227 -26 55 -29 69 -29 173 0 80 -3
108 -10 96 -61 -103 -77 -110 -121 -60 l-34 39 0 -31 c0 -50 -19 -49 -67 1
-24 26 -45 47 -46 47 -1 0 0 -21 2 -46 3 -40 1 -45 -15 -42 -10 1 -37 27 -61
56 -24 29 -43 51 -43 50 0 -2 9 -27 20 -57 12 -29 19 -56 16 -58 -8 -9 -168
151 -193 194 -13 23 -32 82 -42 130 l-17 88 -16 -86 c-12 -64 -24 -98 -46
-128 -18 -24 -28 -49 -25 -60 3 -14 -3 -21 -27 -30 -38 -13 -91 -3 -182 34
-34 14 -63 23 -66 21 -9 -10 100 -104 150 -129 29 -15 85 -34 123 -44 57 -14
94 -33 195 -101 132 -89 140 -96 140 -125 0 -14 -11 -10 -59 23 -33 22 -62 40
-65 40 -3 0 -3 -14 1 -31 l6 -32 -77 53 c-43 28 -79 50 -82 48 -2 -2 8 -21 21
-41 14 -20 25 -39 25 -42 0 -3 -27 12 -59 35 -68 45 -76 48 -61 21 18 -34 12
-33 -49 9 -33 22 -62 40 -65 40 -3 0 2 -16 10 -35 7 -19 14 -37 14 -40 0 -3
-37 19 -82 50 -45 30 -84 53 -86 50 -2 -2 1 -18 7 -36 8 -24 8 -29 -2 -22 -6
5 -32 25 -57 45 -70 54 -73 55 -56 14 8 -20 14 -36 12 -36 -1 0 -36 25 -76 55
-40 30 -75 53 -77 51 -3 -2 5 -23 17 -46 l21 -42 -33 7 c-63 14 -134 45 -168
74 l-35 29 61 -5 c88 -8 127 8 147 57 17 43 27 49 47 25 18 -21 108 -20 132 2
25 23 23 74 -7 133 -32 63 -19 65 61 10 77 -52 121 -64 185 -51 28 6 64 19 82
29 l32 17 -85 3 c-47 2 -89 7 -95 13 -7 7 3 21 30 44 l40 34 -64 -6 -64 -6 30
44 c45 67 85 139 77 139 -16 0 -106 -64 -129 -92 -14 -16 -25 -42 -25 -58 0
-37 -8 -41 -79 -43 -33 -1 -62 -5 -66 -9 -4 -3 5 -23 19 -45 41 -61 58 -109
43 -121 -16 -13 -53 2 -66 27 -6 11 -11 34 -11 51 l0 31 -26 -20 c-34 -26 -83
-27 -133 -1 l-39 19 -6 -31 c-10 -49 -7 -75 11 -114 17 -35 17 -36 -2 -50 -29
-22 -33 -17 -28 30 3 26 -2 75 -12 115 l-17 70 -91 40 c-51 22 -105 43 -120
47 -26 6 -27 8 -13 23 14 13 41 16 156 16 77 0 140 1 140 3 0 1 -18 9 -40 18
-68 27 -49 37 63 32 l102 -5 -67 23 c-114 38 -113 45 13 73 60 14 74 20 49 20
-83 3 -77 37 21 117 38 31 68 59 65 61 -9 9 -173 -69 -221 -105 -35 -26 -52
-48 -60 -74 -14 -50 -45 -80 -125 -122 -59 -31 -77 -36 -138 -36 -79 0 -169
15 -188 31 -31 26 12 57 176 127 21 9 11 11 -56 11 -90 1 -121 14 -110 49 4
11 54 64 112 118 112 104 128 134 71 134 -55 0 -217 -53 -217 -71 0 -5 17 -9
38 -10 20 0 46 -4 57 -9 34 -14 -67 -52 -153 -58 -78 -5 -81 -12 -17 -33 l40
-13 -33 -7 c-18 -4 -76 -10 -128 -14 -52 -4 -94 -10 -94 -13 0 -4 25 -20 55
-36 30 -15 52 -32 49 -37 -3 -5 -60 -9 -127 -9 -113 0 -161 -9 -145 -26 4 -4
36 -15 70 -25 l63 -19 -65 4 c-68 5 -120 -1 -120 -13 0 -4 15 -15 33 -24 32
-16 32 -16 -43 -11 -66 6 -80 4 -114 -16 -59 -35 -134 -32 -213 8 -76 39 -101
71 -84 108 8 19 16 24 29 19 9 -4 40 -9 67 -11 l50 -3 -51 8 c-28 5 -60 14
-72 20 -26 14 -77 79 -69 87 3 4 29 -8 56 -25 52 -31 62 -31 36 3 -29 39 10
40 83 2 36 -19 39 -16 16 19 -15 23 -15 25 2 27 32 2 58 -1 97 -13 39 -13 53
-36 15 -25 -74 20 -74 20 -60 3 8 -9 23 -19 34 -23 13 -4 17 -11 13 -22 -3
-10 10 -1 30 18 l35 34 -22 12 c-13 7 -44 18 -70 24 l-48 12 26 33 c32 42 42
96 21 117 -13 13 -14 24 -1 88 18 96 41 132 155 237 101 94 139 113 219 113
l43 0 -5 -50 c-7 -68 -56 -163 -123 -237 -34 -38 -50 -63 -43 -66 9 -3 0 -18
-23 -43 -22 -23 -39 -54 -43 -74 -9 -50 -30 -77 -84 -104 -36 -19 -43 -26 -30
-31 23 -9 70 17 125 70 l46 44 19 -24 c11 -15 30 -25 44 -25 29 0 85 39 109
76 l16 25 -50 -26 c-78 -39 -122 -30 -120 25 l0 25 16 -22 c19 -27 67 -31 101
-7 26 18 54 69 73 133 10 33 20 47 44 57 43 17 82 59 96 101 17 51 6 151 -23
215 -26 57 -180 236 -187 217 -2 -6 -21 6 -42 27 -53 51 -72 50 -125 -7 -25
-26 -54 -49 -64 -52 -27 -7 -25 -1 15 41 54 57 75 125 74 235 l-2 92 -8 -67
c-13 -96 -43 -170 -95 -228 -25 -27 -50 -50 -55 -50 -5 0 -11 11 -15 24 -5 20
5 37 50 90 77 92 90 119 91 196 0 55 -6 78 -37 145 l-38 80 55 -59 c74 -79
109 -152 113 -236 3 -44 -1 -78 -11 -102 -15 -35 -13 -48 4 -48 12 0 39 98 39
142 0 21 -9 67 -21 101 -20 58 -20 62 -3 72 9 5 45 29 78 52 161 112 215 129
381 119 105 -5 286 -38 389 -70 l48 -15 52 38 c156 117 312 138 516 71z
m-1825 -237 l227 -6 -5 -52 c-7 -66 -44 -139 -96 -190 -32 -30 -41 -47 -41
-72 0 -30 -6 -37 -57 -70 -89 -57 -181 -85 -298 -90 -55 -2 -105 0 -112 4 -9
6 -5 24 17 67 17 32 30 67 30 76 0 47 -128 158 -252 220 -35 17 -25 31 44 66
109 55 150 59 543 47z m-553 -185 c68 -45 119 -88 126 -103 7 -14 12 -62 12
-105 0 -75 -1 -80 -27 -97 -19 -12 -44 -17 -80 -16 -45 2 -55 -2 -72 -23 -11
-14 -22 -38 -26 -54 -15 -70 -74 -63 -152 16 -94 97 -166 279 -143 364 19 72
72 101 177 97 71 -2 72 -3 185 -79z m1145 -376 c33 -53 46 -125 32 -176 -12
-44 -49 -100 -77 -115 -16 -8 -17 0 -13 110 2 82 0 119 -8 119 -6 0 -11 -5
-11 -11 0 -8 -4 -8 -14 0 -8 7 -14 27 -13 46 1 21 -7 46 -19 62 -19 26 -103
94 -163 134 l-25 16 28 36 28 37 117 -111 c64 -61 126 -127 138 -147z m-531
-151 c32 -30 52 -51 44 -46 -60 34 -106 74 -131 113 -37 59 -38 77 -1 26 16
-21 55 -63 88 -93z m444 -180 c-13 -75 -51 -156 -81 -171 -11 -7 -23 -9 -26
-6 -3 3 8 40 26 82 17 43 29 79 27 81 -2 2 -23 -32 -47 -76 -24 -45 -46 -81
-50 -81 -17 0 -20 22 -5 39 21 23 20 37 -1 20 -11 -9 -10 -3 6 19 12 17 25 32
28 32 3 0 0 -7 -7 -15 -7 -9 -10 -18 -7 -21 11 -11 67 89 105 187 l37 96 3
-61 c2 -33 -2 -90 -8 -125z m-925 -86 c42 -19 119 -48 170 -64 93 -30 263 -58
291 -47 10 4 14 -3 14 -25 0 -38 -16 -69 -36 -69 -25 0 -132 39 -248 90 -61
27 -102 43 -91 34 28 -22 231 -120 284 -137 41 -13 43 -15 23 -26 -53 -28
-284 97 -467 253 -40 34 -30 32 60 -9z m362 -271 c-3 -3 -12 -4 -19 -1 -8 3
-5 6 6 6 11 1 17 -2 13 -5z m-707 -351 c65 -17 100 -38 100 -58 0 -24 -82 -20
-98 5 -6 11 -36 33 -64 50 -57 33 -50 34 62 3z m1670 -11 c0 -5 -9 -17 -20
-27 -11 -10 -20 -26 -20 -37 0 -21 -13 -23 -29 -4 -6 8 -25 19 -41 26 -38 16
-38 25 3 38 40 12 107 15 107 4z m265 -36 l28 -19 -24 -18 c-51 -38 -68 -44
-82 -26 -6 10 -39 28 -72 42 -34 13 -53 26 -45 29 8 2 22 7 30 10 32 12 137 0
165 -18z m-401 -10 c18 -7 55 -37 84 -65 l51 -52 -10 35 c-20 72 29 98 109 57
42 -21 122 -103 170 -173 l32 -46 -33 -28 c-45 -38 -88 -54 -148 -54 -45 0
-59 6 -118 47 -100 72 -171 143 -197 198 -27 56 -30 81 -11 88 21 9 37 7 71
-7z m2888 -1360 c19 -14 20 -16 5 -22 -10 -3 -28 -3 -42 0 -23 6 -25 11 -25
60 0 69 11 78 27 22 7 -25 23 -52 35 -60z"/>
<path d="M4695 3881 l-50 -7 50 -7 c28 -4 82 -12 121 -18 39 -5 94 -16 122
-24 68 -17 67 -1 -1 30 -58 27 -159 38 -242 26z"/>
<path d="M4640 3796 c-135 -36 -189 -137 -116 -215 13 -14 30 -46 37 -70 7
-23 19 -45 26 -48 18 -7 51 23 74 69 24 47 24 51 -2 37 -22 -11 -22 -7 -1 51
5 13 3 13 -11 1 -15 -12 -17 -11 -17 10 0 18 -3 20 -12 11 -20 -20 -40 -14
-36 11 2 13 16 29 38 39 35 18 35 18 8 18 -32 0 -35 11 -12 34 19 20 45 20
108 1 58 -18 66 -15 32 13 -15 11 -26 23 -26 26 0 3 26 6 58 7 31 0 66 4 77 9
32 14 -173 10 -225 -4z"/>
<path d="M4416 3769 l-48 -30 -74 25 c-41 13 -74 23 -74 20 0 -2 31 -24 69
-49 62 -39 91 -68 91 -90 0 -4 -7 -4 -15 -1 -9 3 -3 -11 14 -32 17 -20 44 -73
62 -117 30 -78 48 -113 35 -68 -4 12 -11 53 -15 90 -5 37 -19 91 -31 119 -26
59 -23 87 15 128 14 16 24 30 22 32 -2 2 -25 -10 -51 -27z"/>
<path d="M3915 3778 c-25 -13 -105 -90 -105 -100 0 -4 12 -3 28 3 15 6 59 12
97 12 56 0 83 -5 129 -26 33 -15 61 -25 64 -23 10 10 -55 111 -83 128 -33 20
-99 23 -130 6z m108 -29 c27 -14 77 -60 77 -71 0 -14 -49 15 -55 32 -6 19 -46
40 -75 40 -10 0 -32 -11 -48 -25 -17 -14 -42 -25 -58 -25 -28 1 -28 1 -9 16
52 41 125 55 168 33z m-23 -39 c0 -13 -11 -13 -30 0 -12 8 -11 10 8 10 12 0
22 -4 22 -10z"/>
<path d="M4918 3737 c-52 -27 -69 -42 -95 -87 -51 -84 -41 -101 15 -28 27 35
76 81 111 105 74 51 58 56 -31 10z"/>
<path d="M4146 3713 c41 -54 88 -142 80 -151 -4 -3 -23 2 -44 11 l-37 17 35
-31 c64 -56 151 -90 107 -41 -23 25 -21 35 6 29 19 -5 19 -3 -8 20 l-30 26 35
-6 35 -7 -45 30 c-40 27 -42 30 -20 30 21 1 19 4 -15 18 l-40 16 28 6 c26 5
23 8 -47 42 l-76 38 36 -47z"/>
<path d="M3678 3695 c-25 -14 -55 -36 -67 -51 -27 -34 -15 -56 42 -85 l42 -21
-27 26 c-47 45 -36 82 36 130 48 32 36 33 -26 1z"/>
<path d="M3855 3621 c-13 -5 4 -10 52 -14 38 -3 87 -12 107 -21 35 -15 36 -14
26 4 -6 11 -19 24 -30 30 -22 12 -126 12 -155 1z"/>
<path d="M4010 3471 c26 -23 30 -31 18 -31 -31 0 -19 -14 62 -70 44 -30 79
-58 80 -62 0 -4 -19 -8 -42 -10 l-41 -3 74 -50 74 -50 -59 -5 c-33 -3 -61 -10
-63 -17 -2 -6 11 -22 29 -36 32 -24 158 -91 158 -84 0 2 -31 25 -70 51 -102
70 -94 78 47 51 92 -18 93 -18 93 -5 0 5 -43 32 -95 60 -91 49 -130 78 -89 67
50 -14 84 -18 84 -9 0 5 -40 38 -90 71 -49 34 -90 64 -90 66 0 1 20 -3 45 -11
25 -7 45 -11 45 -9 0 3 -49 31 -160 92 l-45 25 35 -31z"/>
<path d="M3635 3363 c40 -30 86 -78 117 -123 l17 -25 -8 31 c-22 80 -68 132
-127 141 l-39 6 40 -30z"/>
<path d="M3957 3371 l22 -18 -27 -13 -27 -12 42 -38 c37 -32 41 -39 28 -50
-35 -29 -11 -61 95 -124 l45 -27 -35 28 c-19 15 -50 42 -70 60 -32 29 -33 32
-15 38 61 20 61 33 2 64 -26 13 -47 28 -47 32 0 4 16 10 35 13 42 8 38 19 -15
46 -49 25 -62 25 -33 1z"/>
<path d="M3787 3298 c21 -24 56 -71 77 -106 22 -34 41 -60 44 -57 10 10 -52
117 -93 160 -56 57 -81 60 -28 3z"/>
<path d="M5100 3089 c65 -35 95 -62 124 -109 44 -69 41 -74 -20 -39 -47 26
-54 28 -43 11 13 -21 45 -42 201 -135 82 -49 188 -133 188 -149 0 -5 -11 -8
-25 -8 -75 0 33 -49 209 -95 55 -15 125 -40 157 -55 63 -32 153 -110 211 -183
41 -53 49 -46 19 18 -43 92 -174 182 -336 230 -144 43 -146 44 -75 39 l65 -5
-55 24 c-98 43 -174 85 -210 116 -31 27 -32 30 -10 22 76 -25 79 -18 10 20
-94 53 -160 120 -236 240 -52 83 -59 91 -62 67 -2 -16 -4 -28 -6 -28 -1 0 -36
11 -76 25 -94 32 -97 31 -30 -6z"/>
<path d="M3860 3077 c0 -3 7 -21 15 -40 34 -83 3 -179 -84 -260 -28 -26 -51
-49 -51 -51 0 -1 13 -1 29 2 38 5 96 54 132 111 l29 46 -6 -50 -5 -50 31 57
c33 64 51 76 130 94 55 12 55 12 15 14 -111 4 -127 14 -111 70 6 21 5 22 -4 8
-17 -28 -46 -21 -85 17 -19 20 -35 34 -35 32z"/>
<path d="M3470 2939 c-106 -50 -181 -120 -196 -185 -6 -28 -6 -28 10 -9 17 20
17 20 12 -5 -2 -14 -10 -62 -16 -108 -6 -46 -21 -104 -33 -130 -11 -26 -23
-51 -26 -57 -2 -5 4 -4 13 4 29 24 46 67 71 181 38 171 85 245 198 310 68 39
50 38 -33 -1z"/>
<path d="M3967 2716 c-111 -37 -140 -56 -86 -56 35 0 67 -14 53 -23 -5 -2 -49
-17 -99 -32 -103 -31 -126 -45 -72 -45 76 0 32 -26 -96 -56 -50 -12 -43 -43
11 -44 12 0 22 -3 22 -8 0 -4 -47 -32 -104 -62 -57 -30 -103 -56 -101 -58 4
-4 214 88 243 106 25 16 29 32 7 32 -38 0 -8 21 68 46 81 27 82 28 53 39 -28
12 -27 13 45 29 90 20 112 32 87 47 -26 14 -22 32 10 51 46 29 88 67 72 67 -8
0 -59 -15 -113 -33z"/>
<path d="M3078 2344 c6 -11 24 -31 41 -47 30 -26 32 -27 61 -12 36 19 40 28 6
15 -20 -7 -32 -3 -71 27 -30 23 -43 29 -37 17z"/>
<path d="M3296 2295 c-35 -26 -128 -56 -216 -69 l-85 -13 41 -11 c29 -9 57 -9
94 -2 56 11 158 61 186 91 20 22 7 25 -20 4z"/>
<path d="M3340 2251 c-28 -5 -36 -11 -38 -31 -5 -35 -13 -41 -74 -55 l-53 -13
40 -1 c48 -1 105 30 105 58 0 14 10 21 35 25 19 4 37 11 40 16 7 11 -1 11 -55
1z"/>
<path d="M2795 3589 c-58 -11 -175 -48 -175 -55 0 -8 122 8 170 22 25 8 81 14
125 14 57 0 75 3 63 10 -25 15 -127 20 -183 9z"/>
<path d="M3140 3543 c-38 -20 -73 -78 -89 -150 -12 -56 -2 -49 60 43 50 75 76
94 127 94 20 1 23 3 12 9 -34 20 -75 21 -110 4z"/>
<path d="M2800 3524 l-85 -23 70 2 c53 2 80 8 105 25 46 29 22 28 -90 -4z"/>
<path d="M3209 3485 c-26 -14 -65 -60 -88 -102 -6 -12 11 0 39 27 29 30 62 53
80 56 33 7 39 18 14 28 -19 7 -13 8 -45 -9z"/>
<path d="M3213 3433 c-7 -2 -13 -21 -12 -41 0 -31 2 -33 9 -16 4 12 21 31 36
43 l27 21 -24 -1 c-13 0 -30 -3 -36 -6z"/>
<path d="M3075 3298 c-44 -16 -123 -39 -175 -50 -52 -11 -96 -21 -98 -23 -2
-2 16 -7 41 -10 73 -11 221 37 297 95 31 25 31 25 -65 -12z"/>
<path d="M2980 3299 c-14 -6 -50 -14 -80 -18 -39 -6 -50 -10 -37 -16 26 -11
103 4 129 25 26 22 24 23 -12 9z"/>
<path d="M2312 3510 c-53 -12 -72 -36 -71 -89 l1 -46 10 38 c8 31 14 38 29 34
16 -4 17 -2 8 15 -11 20 -9 21 32 15 24 -3 38 -4 32 -1 -22 9 -14 24 12 24 14
0 25 5 25 10 0 11 -30 11 -78 0z"/>
<path d="M2434 3406 c-12 -31 75 -136 113 -136 15 0 17 26 3 35 -21 13 -9 25
25 25 42 0 44 10 8 37 -69 50 -138 69 -149 39z"/>
<path d="M2280 3295 c0 -24 25 -67 54 -94 20 -19 29 -22 38 -13 7 7 20 12 30
12 28 0 22 12 -36 63 -56 48 -86 59 -86 32z m60 -72 c-1 -11 -40 37 -40 49 0
6 9 -1 20 -15 11 -14 20 -29 20 -34z"/>
<path d="M2316 3170 c12 -43 34 -68 79 -90 33 -16 48 -18 69 -11 35 14 33 31
-3 31 -16 0 -37 3 -47 7 -12 4 -15 3 -10 -5 4 -7 3 -12 -2 -12 -10 0 -55 49
-80 86 -11 17 -12 17 -6 -6z"/>
<path d="M3568 3186 c36 -39 65 -80 69 -97 4 -20 9 -27 16 -20 26 26 -24 100
-102 153 l-46 32 63 -68z"/>
<path d="M4063 1924 c-3 -8 9 -42 26 -76 18 -33 31 -62 29 -63 -2 -2 -41 25
-87 60 -78 59 -126 83 -138 71 -24 -24 97 -170 171 -205 23 -12 61 -21 84 -21
52 0 140 19 148 31 8 13 -12 42 -86 122 -80 87 -133 117 -147 81z"/>
</g>
</svg>
